<svg id="logo-dcor" xmlns="http://www.w3.org/2000/svg" viewBox="0 0 539 703.75"><rect y="701.25" width="539" height="2.5" style="fill:#8d8d8d"/><path d="M939.33,1007.4q11.08,23.84,11.09,53.24,0,55.93-37.23,88.25Q881.77,1176,837.29,1176q-46.8,0-78.73-32.81t-31.94-82.23q0-29.85,11.74-53.9a104.62,104.62,0,0,1,32.94-39.42l12.9,16.81a91.86,91.86,0,0,0-27.46,33.38,97.65,97.65,0,0,0-9.35,42.79,94.45,94.45,0,0,0,12.26,47.21,87.89,87.89,0,0,0,32.91,33.67q20.67,12,46.47,12,39,0,65.11-26.72t26.09-67.41q0-44.75-35-74.87L908,967.62A107.41,107.41,0,0,1,939.33,1007.4Z" transform="translate(-412 -555.86)" style="fill:#8d8d8d"/><path d="M947.07,671V692.4H734V649.86q0-35.57,2.9-48.2a55,55,0,0,1,18.6-30.92q14.28-11.91,35.13-11.91,17.37,0,30.55,8.21a51.1,51.1,0,0,1,19.92,23.45q6.74,15.24,6.88,42.1l99.13-76.73v26.19l-99.13,76.73V671h99.13Zm-119.91,0,0.29-36.82q0-21.39-4.05-31.65a32.9,32.9,0,0,0-13-16,36,36,0,0,0-19.91-5.75A34.49,34.49,0,0,0,771,586.62,32.45,32.45,0,0,0,758.5,601.9q-3.76,9.46-3.76,31.43V671h72.42Z" transform="translate(-412 -555.86)" style="fill:#8d8d8d"/><path d="M950.42,834.37q0,47.37-32.45,80t-78.51,32.59a113.58,113.58,0,0,1-56.93-14.84,109.69,109.69,0,0,1-55.91-96q0-48.37,32.3-81t79.52-32.59q46.8,0,79.39,32.52T950.42,834.37Zm-20.78.79a91.21,91.21,0,0,0-12-45.91,86.2,86.2,0,0,0-32.89-32.93q-20.87-11.82-46.36-11.83t-45.85,11.83a88.38,88.38,0,0,0-32.81,33.29,90.14,90.14,0,0,0-12.32,45.55,91,91,0,0,0,45.49,77.9q20.86,11.9,46.5,11.9,38,0,64.11-26.33T929.64,835.16Z" transform="translate(-412 -555.86)" style="fill:#8d8d8d"/><path d="M931.85,1212.82q0,3.21-3.85,5.31a29,29,0,0,1-10.61,2.81q-4.93.52-18.46,0.52h-5.18v15H886.5v-32.19H901q12.43,0,16.78.48a28,28,0,0,1,10.16,2.79C930.54,1208.92,931.85,1210.69,931.85,1212.82Zm-7.5,0a3.72,3.72,0,0,0-2-3,13.32,13.32,0,0,0-5.21-1.91,68.57,68.57,0,0,0-10.59-.57H893.75v10.92l12.29,0.07a70.68,70.68,0,0,0,10.91-.6,13.86,13.86,0,0,0,5.43-1.95A3.72,3.72,0,0,0,924.35,1212.83Z" transform="translate(-412 -555.86)" style="fill:#86bf5f"/><path d="M780,1208.31q11.12,4.88,11.11,12t-11.09,12q-11.09,4.92-27,4.92-16.15,0-27.26-4.9t-11.11-11.86q0-4.63,5.06-8.6t13.8-6.21a76.18,76.18,0,0,1,18.91-2.24Q768.91,1203.43,780,1208.31Zm3.61,12q0-3.83-4-6.93a31.42,31.42,0,0,0-11.34-5,62.82,62.82,0,0,0-15.53-1.86,61,61,0,0,0-15.27,1.86,30.72,30.72,0,0,0-11.27,5q-4.05,3.15-4.05,7,0,5.73,9,9.69t21.62,4a63.4,63.4,0,0,0,15.65-1.82,30,30,0,0,0,11.22-5Q783.64,1224.17,783.63,1220.31Z" transform="translate(-412 -555.86)" style="fill:#8d8d8d"/><path d="M701.15,557.61v618.67H666v-54.86q-22.43,27.26-50.32,41t-61,13.71q-58.85,0-100.5-42.65t-41.65-103.76q0-59.84,42-102.36t101.14-42.53q34.13,0,61.77,14.52T666,942.86L668,557.61h33.12Zm-52.22,531q14.1-25.17,14.1-56.7,0-48.06-31.64-80.35T553.5,919.22a107.3,107.3,0,0,0-54.9,14.62q-25.16,14.61-40,41.06a112.26,112.26,0,0,0,.12,111.88q15,26.7,40.29,41.58a105.15,105.15,0,0,0,54.26,14.87,111.21,111.21,0,0,0,55.4-14.74Q634.81,1113.73,648.93,1088.56Z" transform="translate(-412 -555.86)" style="fill:#86bf5f"/><polygon points="207.32 648.38 207.32 680.57 200.06 680.57 200.06 665.03 163.1 665.03 163.1 680.57 155.84 680.57 155.84 648.38 163.1 648.38 163.1 661.88 200.06 661.88 200.06 648.38 207.32 648.38" style="fill:#8d8d8d"/><path d="M468.23,1223.74c2.34,1.6,3.51,3.22,3.51,4.84q0,3.49-6,6.08a36.85,36.85,0,0,1-14.58,2.58,43.07,43.07,0,0,1-12-1.56,28.21,28.21,0,0,1-9.91-5.24l6.16-1.65a23.11,23.11,0,0,0,15.06,5.32,30.11,30.11,0,0,0,6.86-.75,13.23,13.23,0,0,0,4.88-2,3.47,3.47,0,0,0,1.68-2.69c0-1.08-.82-2.14-2.47-3.17q-3.41-2.14-12.43-5.17t-11.31-4.4c-2.56-1.51-3.85-3.15-3.85-4.92a4.86,4.86,0,0,1,2.27-3.83,17.29,17.29,0,0,1,6.4-2.72,37.68,37.68,0,0,1,8.95-1,39.23,39.23,0,0,1,9.6,1.13,34.93,34.93,0,0,1,9.45,4.14l-5.92,2a29.21,29.21,0,0,0-7-3.18,24.53,24.53,0,0,0-6.29-.76,18.58,18.58,0,0,0-7.19,1.18c-1.85.79-2.78,1.76-2.78,2.91a2.85,2.85,0,0,0,1,2,12.4,12.4,0,0,0,3.61,2.15q1.43,0.62,9.37,3.22Q464.73,1221.33,468.23,1223.74Z" transform="translate(-412 -555.86)" style="fill:#86bf5f"/></svg>